<svg width="50" height="50" viewBox="0 0 50 50" fill="none" xmlns="http://www.w3.org/2000/svg">
<rect width="50" height="50" fill="black"/>
<path fill-rule="evenodd" clip-rule="evenodd" d="M13.9073 13.0997C11.3531 13.7794 11.3685 17.5253 13.9281 18.1836C14.4464 18.3167 19.6073 18.3228 20.0975 18.1909C22.0603 17.6615 22.7227 15.1998 21.2844 13.7794C20.9333 13.4327 20.5582 13.2153 20.0975 13.091C19.6293 12.9647 14.3866 12.972 13.9073 13.0997ZM14.0405 22.4761C11.2627 23.0249 11.3446 27.0996 14.1444 27.624C14.6361 27.716 35.173 27.7099 35.6801 27.6176C37.5495 27.277 38.5182 24.8286 37.3158 23.4819C37.2116 23.3648 37.1258 23.2503 37.125 23.2275C37.1231 23.1474 36.4456 22.7042 36.1262 22.5741C35.7852 22.4349 14.7218 22.3414 14.0405 22.4761ZM29.9468 31.8238C27.4367 32.238 26.9516 35.704 29.2481 36.8177L29.6247 37H32.7791H35.9331L36.3193 36.8131C38.6545 35.6826 38.1412 32.2342 35.5766 31.8234C35.0853 31.7445 30.4246 31.7449 29.9468 31.8238Z" fill="white"/>
</svg>
